<svg xmlns="http://www.w3.org/2000/svg" version="1.1" xmlns:xlink="http://www.w3.org/1999/xlink" xmlns:svgjs="http://svgjs.dev/svgjs" width="2000" height="1250" viewBox="0 0 2000 1250"><g transform="matrix(1,0,0,1,0,0)"><svg viewBox="0 0 512 320" data-background-color="#ffffff" preserveAspectRatio="xMidYMid meet" height="1250" width="2000" xmlns="http://www.w3.org/2000/svg" xmlns:xlink="http://www.w3.org/1999/xlink"><g id="tight-bounds" transform="matrix(1,0,0,1,0,0)"><svg viewBox="0 0 512 320" height="320" width="512"><g><svg></svg></g><g><svg viewBox="0 0 512 320" height="320" width="512"><g><path transform="translate(256,160) scale(160,160)" d="M-1 0c0-0.552 0.448-1 1-1 0.552 0 1 0.448 1 1 0 0.552-0.448 1-1 1-0.552 0-1-0.448-1-1z" fill="#4416fc" fill-rule="nonzero" stroke="none" stroke-width="1" stroke-linecap="butt" stroke-linejoin="miter" stroke-miterlimit="10" stroke-dasharray="" stroke-dashoffset="0" font-family="none" font-weight="none" font-size="none" text-anchor="none" style="mix-blend-mode: normal" data-fill-palette-color="tertiary"></path></g><g transform="matrix(1,0,0,1,153.6,109.99118800652765)"><svg viewBox="0 0 204.8 100.0176239869447" height="100.0176239869447" width="204.8"><g><svg viewBox="0 0 204.8 100.0176239869447" height="100.0176239869447" width="204.8"><g><svg viewBox="0 0 204.8 100.0176239869447" height="100.0176239869447" width="204.8"><g transform="matrix(1,0,0,1,0,61.81490413200363)"><svg viewBox="0 0 204.8 38.20271985494107" height="38.20271985494107" width="204.8"><g id="textblocktransform"><svg viewBox="0 0 204.8 38.20271985494107" height="38.20271985494107" width="204.8" id="textblock"><g><svg viewBox="0 0 204.8 38.20271985494107" height="38.20271985494107" width="204.8"><g transform="matrix(1,0,0,1,0,0)"><svg width="204.8" viewBox="2.65 -31.35 220.57999999999998 41.150000000000006" height="38.20271985494107" data-palette-color="#ffffff"><path d="M20.3-7.65L20.3-7.65Q20.3-3.9 17.6-1.85 14.9 0.2 10.45 0.2L10.45 0.2Q5.85 0.2 2.75-1.35L2.75-1.35 2.75-7.85Q6.2-5.45 10.05-5.45L10.05-5.45Q12.8-5.45 12.8-7.2L12.8-7.2Q12.8-7.65 12.55-8.05 12.3-8.45 11.7-8.8 11.1-9.15 10.6-9.38 10.1-9.6 9.15-10 8.2-10.4 7.7-10.65L7.7-10.65Q2.65-13.05 2.65-17.85L2.65-17.85Q2.65-21.55 5.48-23.6 8.3-25.65 12.5-25.65L12.5-25.65Q16.4-25.65 19-24.6L19-24.6 19-18.35Q16.35-19.9 12.8-19.9L12.8-19.9Q11.5-19.9 10.8-19.38 10.1-18.85 10.1-18.05L10.1-18.05Q10.1-17.6 10.35-17.2 10.6-16.8 11.18-16.45 11.75-16.1 12.28-15.83 12.8-15.55 13.73-15.15 14.65-14.75 15.2-14.45L15.2-14.45Q17.5-13.25 18.9-11.68 20.3-10.1 20.3-7.65ZM39.6-6.6L39.6-0.55Q37.75 0.25 34.6 0.25L34.6 0.25Q25.95 0.25 25.95-8.4L25.95-8.4 25.95-20 22.3-20 22.3-25.35 25.95-25.35 25.95-31.35 33.25-31.35 33.25-25.35 39.15-25.35 39.15-20 33.25-20 33.25-8.35Q33.25-7 34.02-6.3 34.8-5.6 36.05-5.6L36.05-5.6Q38.05-5.6 39.6-6.6L39.6-6.6ZM53.39-5L53.39-5Q54.95-5 55.8-5.95 56.64-6.9 56.64-8.55L56.64-8.55 56.64-10.4 54.3-10.4Q52.45-10.4 51.45-9.6 50.45-8.8 50.45-7.55L50.45-7.55Q50.45-5 53.39-5ZM56.99 0L56.99-3.1Q55.39 0.15 50.7 0.15L50.7 0.15Q46.99 0.15 44.92-1.95 42.84-4.05 42.84-7.2L42.84-7.2Q42.84-10.85 45.52-12.88 48.2-14.9 53.45-14.9L53.45-14.9 56.64-14.9 56.64-16.65Q56.64-19.85 52.39-19.85L52.39-19.85Q48.3-19.85 44.8-17.55L44.8-17.55 44.8-24.1Q47.8-25.8 53.45-25.8L53.45-25.8Q58.84-25.8 61.5-23.48 64.14-21.15 64.14-16.25L64.14-16.25 64.14 0 56.99 0ZM84.69-6.6L84.69-0.55Q82.84 0.25 79.69 0.25L79.69 0.25Q71.04 0.25 71.04-8.4L71.04-8.4 71.04-20 67.39-20 67.39-25.35 71.04-25.35 71.04-31.35 78.34-31.35 78.34-25.35 84.24-25.35 84.24-20 78.34-20 78.34-8.35Q78.34-7 79.12-6.3 79.89-5.6 81.14-5.6L81.14-5.6Q83.14-5.6 84.69-6.6L84.69-6.6ZM106.49-7.65L106.49-7.65Q106.49-3.9 103.79-1.85 101.09 0.2 96.64 0.2L96.64 0.2Q92.04 0.2 88.94-1.35L88.94-1.35 88.94-7.85Q92.39-5.45 96.24-5.45L96.24-5.45Q98.99-5.45 98.99-7.2L98.99-7.2Q98.99-7.65 98.74-8.05 98.49-8.45 97.89-8.8 97.29-9.15 96.79-9.38 96.29-9.6 95.34-10 94.39-10.4 93.89-10.65L93.89-10.65Q88.84-13.05 88.84-17.85L88.84-17.85Q88.84-21.55 91.66-23.6 94.49-25.65 98.69-25.65L98.69-25.65Q102.59-25.65 105.19-24.6L105.19-24.6 105.19-18.35Q102.54-19.9 98.99-19.9L98.99-19.9Q97.69-19.9 96.99-19.38 96.29-18.85 96.29-18.05L96.29-18.05Q96.29-17.6 96.54-17.2 96.79-16.8 97.36-16.45 97.94-16.1 98.47-15.83 98.99-15.55 99.91-15.15 100.84-14.75 101.39-14.45L101.39-14.45Q103.69-13.25 105.09-11.68 106.49-10.1 106.49-7.65ZM146.99-25.35L146.99-2.45Q146.99 3.65 143.34 6.73 139.69 9.8 134.19 9.8L134.19 9.8Q128.84 9.8 124.83 7.9L124.83 7.9 124.83 0.45Q128.34 3.25 133.44 3.25L133.44 3.25Q136.74 3.25 138.24 1.85 139.74 0.45 139.74-2.55L139.74-2.55 139.74-4.25Q137.53-0.85 132.74-0.85L132.74-0.85Q128.53-0.85 125.51-3.95 122.48-7.05 122.48-13.15L122.48-13.15Q122.48-18.55 125.41-22.08 128.34-25.6 133.09-25.6L133.09-25.6Q137.59-25.6 139.74-22L139.74-22 139.74-25.35 146.99-25.35ZM130.09-13.1L130.09-13.1Q130.09-9.95 131.28-8.3 132.49-6.65 134.74-6.65L134.74-6.65Q137.09-6.65 138.41-8.43 139.74-10.2 139.74-12.7L139.74-12.7Q139.74-19.5 134.78-19.5L134.78-19.5Q132.59-19.5 131.34-17.8 130.09-16.1 130.09-13.1ZM175.73-25.35L175.73 0 168.43 0 168.43-4.05Q166.43 0.2 160.73 0.2L160.73 0.2Q156.83 0.2 154.66-1.98 152.48-4.15 152.48-8.4L152.48-8.4 152.48-25.35 159.78-25.35 159.78-10.05Q159.78-5.6 163.68-5.6L163.68-5.6Q168.43-5.6 168.43-11.95L168.43-11.95 168.43-25.35 175.73-25.35ZM188.98-12.65L188.98 0 181.68 0 181.73-25.35 188.98-25.35 188.98-20.65Q189.68-22.85 191.31-24.18 192.93-25.5 195.08-25.5L195.08-25.5Q196.28-25.5 196.98-25.3L196.98-25.3 196.98-18.4Q195.78-18.95 194.23-18.95L194.23-18.95Q191.88-18.95 190.43-17.23 188.98-15.5 188.98-12.65L188.98-12.65ZM223.23-25.35L223.23 0 215.93 0 215.93-4.05Q213.93 0.2 208.23 0.2L208.23 0.2Q204.33 0.2 202.15-1.98 199.98-4.15 199.98-8.4L199.98-8.4 199.98-25.35 207.28-25.35 207.28-10.05Q207.28-5.6 211.18-5.6L211.18-5.6Q215.93-5.6 215.93-11.95L215.93-11.95 215.93-25.35 223.23-25.35Z" opacity="1" transform="matrix(1,0,0,1,0,0)" fill="#ffffff" class="wordmark-text-0" data-fill-palette-color="quaternary" id="text-0"></path></svg></g></svg></g></svg></g></svg></g><g transform="matrix(1,0,0,1,72.0910939995299,0)"><svg viewBox="0 0 60.617812000940205 52.796158839528566" height="52.796158839528566" width="60.617812000940205"><g><svg xmlns="http://www.w3.org/2000/svg" xmlns:xlink="http://www.w3.org/1999/xlink" version="1.1" x="0" y="0" viewBox="1 5 62 54" style="enable-background:new 0 0 64 64;" xml:space="preserve" height="52.796158839528566" width="60.617812000940205" class="icon-icon-0" data-fill-palette-color="quaternary" id="icon-0"><path d="M56 57H12c-0.5 0-1 0.5-1 1s0.5 1 1 1h44c0.5 0 1-0.5 1-1S56.5 57 56 57z" fill="#ffffff" data-fill-palette-color="quaternary"></path><path d="M62 57h-2c-0.6 0-1 0.4-1 1s0.4 1 1 1h2c0.6 0 1-0.4 1-1S62.6 57 62 57z" fill="#ffffff" data-fill-palette-color="quaternary"></path><path d="M8 57H2c-0.6 0-1 0.4-1 1s0.4 1 1 1h6c0.6 0 1-0.4 1-1S8.6 57 8 57z" fill="#ffffff" data-fill-palette-color="quaternary"></path><path d="M17 49l3.4 0.9 7.7-2.1L18 45.2c-0.5-0.1-2.1-0.1-2.4 1.4C15.2 48.2 16.5 48.9 17 49z" fill="#ffffff" data-fill-palette-color="quaternary"></path><path d="M48.4 55.4c0.4-1.6-0.9-2.3-1.4-2.4 0 0-3.4-0.9-3.4-0.9l-7.7 2.1L46 56.8C46.5 56.9 48.1 56.8 48.4 55.4z" fill="#ffffff" data-fill-palette-color="quaternary"></path><path d="M15.6 55.4c0.3 1.6 1.9 1.5 2.4 1.4L47 49c0.5-0.1 1.8-0.8 1.4-2.4-0.4-1.9-2.3-1.5-2.4-1.4L17 53C15.9 53.2 15.4 54.3 15.6 55.4z" fill="#ffffff" data-fill-palette-color="quaternary"></path><path d="M29.8 17.9c0.5-0.6 1.3-0.9 2.2-0.9s1.6 0.4 2.2 0.9c0 0 1.7-2.5 1.7-2.5 0.8-1.2 1.2-2.5 1.2-3.9V10c0-2.8-2.2-5-5-5s-5 2.2-5 5v1.6c0 1.4 0.4 2.7 1.2 3.9C28.2 15.5 29.8 17.9 29.8 17.9z" fill="#ffffff" data-fill-palette-color="quaternary"></path><path d="M33 20c0-0.5-0.5-1-1-1s-1 0.5-1 1c0 0.3 0.4 1.2 1 2.1C32.6 21.2 33 20.3 33 20z" fill="#ffffff" data-fill-palette-color="quaternary"></path><path d="M27.1 23c0.5 2.3 2.5 4 4.9 4s4.4-1.7 4.9-4h-3.1c-0.4 0.6-0.8 1.2-1 1.6C32.6 24.8 32.3 25 32 25s-0.6-0.2-0.8-0.4c-0.3-0.4-0.6-0.9-1-1.6H27.1z" fill="#ffffff" data-fill-palette-color="quaternary"></path><path d="M3.5 33.9l8.8 6.9c0.3 0.2 0.8 0.3 1.3 0.2 0.5-0.1 0.8-0.4 1.1-0.8 0 0 6.6-8.8 6.6-8.8 0.3-0.4 0.7-0.5 1.1-0.4 0.4 0.1 0.7 0.5 0.7 1l0 12.5 9 2.4 9-2.4L41 32c0-0.4 0.3-0.8 0.7-1 0.4-0.1 0.9 0 1.1 0.4 0 0 6.6 8.7 6.6 8.8 0.2 0.4 0.6 0.7 1.1 0.8 0.5 0.1 0.9 0 1.3-0.2l8.7-6.8c0.3-0.3 0.8-1 0.3-1.8-0.5-0.7-1.5-0.6-1.9-0.3l-6.2 5c-0.2 0.2-0.9 0.5-1.4-0.2l-7.8-10.9c-1.1-1.5-2.7-2.4-4.5-2.7-0.5 3.4-3.4 6-6.9 6s-6.4-2.6-6.9-6c-1.8 0.2-3.4 1.2-4.5 2.7l-7.8 10.9c-0.2 0.2-0.8 0.7-1.4 0.2l-6.2-5c-0.4-0.3-1.5-0.4-1.9 0.2C2.7 32.9 3.2 33.7 3.5 33.9zM25 34c0-0.5 0.5-1 1-1s1 0.5 1 1v2c0 0.5-0.5 1-1 1s-1-0.5-1-1V34zM25 40c0-0.5 0.5-1 1-1s1 0.5 1 1v1.3l3.3 1.1c0.5 0.2 0.8 0.7 0.6 1.3-0.3 0.8-1.2 0.7-1.3 0.6l-4-1.3c-0.4-0.1-0.7-0.5-0.7-1V40z" fill="#ffffff" data-fill-palette-color="quaternary"></path></svg></g></svg></g><g></g></svg></g></svg></g></svg></g></svg></g><defs></defs></svg><rect width="512" height="320" fill="none" stroke="none" visibility="hidden"></rect></g></svg></g></svg>